<mxfile host="app.diagrams.net" agent="Mozilla/5.0 (Windows NT 10.0; Win64; x64) AppleWebKit/537.36 (KHTML, like Gecko) Chrome/129.0.0.0 Safari/537.36" version="24.8.0">
  <diagram name="Página-1" id="m2xBeJzM8-DMEc3QJZCY">
    <mxGraphModel dx="1434" dy="780" grid="1" gridSize="10" guides="1" tooltips="1" connect="1" arrows="1" fold="1" page="1" pageScale="1" pageWidth="827" pageHeight="1169" math="0" shadow="0">
      <root>
        <mxCell id="0" />
        <mxCell id="1" parent="0" />
        <mxCell id="moRijN_G1tvkUnhc_iRw-2" value="" style="ellipse;whiteSpace=wrap;html=1;" vertex="1" parent="1">
          <mxGeometry x="295" y="30" width="150" height="50" as="geometry" />
        </mxCell>
        <mxCell id="moRijN_G1tvkUnhc_iRw-3" value="INÍCIO" style="text;html=1;align=center;verticalAlign=middle;whiteSpace=wrap;rounded=0;strokeColor=#141414;" vertex="1" parent="1">
          <mxGeometry x="340" y="40" width="60" height="30" as="geometry" />
        </mxCell>
        <mxCell id="moRijN_G1tvkUnhc_iRw-4" value="" style="ellipse;whiteSpace=wrap;html=1;" vertex="1" parent="1">
          <mxGeometry x="308.5" y="715" width="110" height="60" as="geometry" />
        </mxCell>
        <mxCell id="moRijN_G1tvkUnhc_iRw-6" value="FIM" style="text;html=1;align=center;verticalAlign=middle;whiteSpace=wrap;rounded=0;strokeColor=#050505;" vertex="1" parent="1">
          <mxGeometry x="327" y="730" width="73" height="30" as="geometry" />
        </mxCell>
        <mxCell id="moRijN_G1tvkUnhc_iRw-7" value="LEITURA&lt;div&gt;&amp;nbsp;VARIAVEL LETRA&lt;/div&gt;" style="html=1;strokeWidth=2;shape=manualInput;whiteSpace=wrap;rounded=1;size=26;arcSize=11;" vertex="1" parent="1">
          <mxGeometry x="306.5" y="110" width="114" height="60" as="geometry" />
        </mxCell>
        <mxCell id="moRijN_G1tvkUnhc_iRw-9" style="edgeStyle=orthogonalEdgeStyle;rounded=0;orthogonalLoop=1;jettySize=auto;html=1;exitX=0.5;exitY=1;exitDx=0;exitDy=0;entryX=0.56;entryY=0.167;entryDx=0;entryDy=0;entryPerimeter=0;" edge="1" parent="1" source="moRijN_G1tvkUnhc_iRw-3" target="moRijN_G1tvkUnhc_iRw-7">
          <mxGeometry relative="1" as="geometry" />
        </mxCell>
        <mxCell id="moRijN_G1tvkUnhc_iRw-14" style="edgeStyle=orthogonalEdgeStyle;rounded=0;orthogonalLoop=1;jettySize=auto;html=1;exitX=1;exitY=0.5;exitDx=0;exitDy=0;exitPerimeter=0;" edge="1" parent="1" source="moRijN_G1tvkUnhc_iRw-11" target="moRijN_G1tvkUnhc_iRw-13">
          <mxGeometry relative="1" as="geometry" />
        </mxCell>
        <mxCell id="moRijN_G1tvkUnhc_iRw-11" value="LETRA ==S" style="strokeWidth=2;html=1;shape=mxgraph.flowchart.decision;whiteSpace=wrap;" vertex="1" parent="1">
          <mxGeometry x="314" y="210" width="100" height="90" as="geometry" />
        </mxCell>
        <mxCell id="moRijN_G1tvkUnhc_iRw-12" style="edgeStyle=orthogonalEdgeStyle;rounded=0;orthogonalLoop=1;jettySize=auto;html=1;exitX=0.5;exitY=1;exitDx=0;exitDy=0;entryX=0.5;entryY=0;entryDx=0;entryDy=0;entryPerimeter=0;" edge="1" parent="1" source="moRijN_G1tvkUnhc_iRw-7" target="moRijN_G1tvkUnhc_iRw-11">
          <mxGeometry relative="1" as="geometry" />
        </mxCell>
        <mxCell id="moRijN_G1tvkUnhc_iRw-33" style="edgeStyle=orthogonalEdgeStyle;rounded=0;orthogonalLoop=1;jettySize=auto;html=1;exitX=1;exitY=0.5;exitDx=0;exitDy=0;exitPerimeter=0;" edge="1" parent="1" source="moRijN_G1tvkUnhc_iRw-13" target="moRijN_G1tvkUnhc_iRw-34">
          <mxGeometry relative="1" as="geometry">
            <mxPoint x="560" y="610" as="targetPoint" />
          </mxGeometry>
        </mxCell>
        <mxCell id="moRijN_G1tvkUnhc_iRw-13" value="IMPRIMA&lt;div&gt;SOLTEIRO&lt;/div&gt;" style="shape=display;whiteSpace=wrap;html=1;" vertex="1" parent="1">
          <mxGeometry x="445" y="235" width="80" height="40" as="geometry" />
        </mxCell>
        <mxCell id="moRijN_G1tvkUnhc_iRw-15" value="LETRA ==C" style="strokeWidth=2;html=1;shape=mxgraph.flowchart.decision;whiteSpace=wrap;" vertex="1" parent="1">
          <mxGeometry x="314" y="330" width="100" height="90" as="geometry" />
        </mxCell>
        <mxCell id="moRijN_G1tvkUnhc_iRw-18" value="LETRA ==D" style="strokeWidth=2;html=1;shape=mxgraph.flowchart.decision;whiteSpace=wrap;" vertex="1" parent="1">
          <mxGeometry x="314" y="440" width="100" height="90" as="geometry" />
        </mxCell>
        <mxCell id="moRijN_G1tvkUnhc_iRw-19" value="LETRA ==V" style="strokeWidth=2;html=1;shape=mxgraph.flowchart.decision;whiteSpace=wrap;" vertex="1" parent="1">
          <mxGeometry x="314" y="550" width="100" height="90" as="geometry" />
        </mxCell>
        <mxCell id="moRijN_G1tvkUnhc_iRw-22" value="IMPRIMA&lt;div&gt;CASADO&lt;/div&gt;" style="shape=display;whiteSpace=wrap;html=1;" vertex="1" parent="1">
          <mxGeometry x="440" y="355" width="80" height="40" as="geometry" />
        </mxCell>
        <mxCell id="moRijN_G1tvkUnhc_iRw-23" value="IMPRIMA&lt;div&gt;DIVORCIADO&lt;/div&gt;" style="shape=display;whiteSpace=wrap;html=1;" vertex="1" parent="1">
          <mxGeometry x="440" y="465" width="100" height="40" as="geometry" />
        </mxCell>
        <mxCell id="moRijN_G1tvkUnhc_iRw-35" style="edgeStyle=orthogonalEdgeStyle;rounded=0;orthogonalLoop=1;jettySize=auto;html=1;exitX=1;exitY=0.5;exitDx=0;exitDy=0;exitPerimeter=0;entryX=0;entryY=0.5;entryDx=0;entryDy=0;" edge="1" parent="1" source="moRijN_G1tvkUnhc_iRw-24" target="moRijN_G1tvkUnhc_iRw-34">
          <mxGeometry relative="1" as="geometry" />
        </mxCell>
        <mxCell id="moRijN_G1tvkUnhc_iRw-24" value="IMPRIMA&lt;div&gt;VIUVO&lt;/div&gt;" style="shape=display;whiteSpace=wrap;html=1;" vertex="1" parent="1">
          <mxGeometry x="450" y="575" width="80" height="40" as="geometry" />
        </mxCell>
        <mxCell id="moRijN_G1tvkUnhc_iRw-26" style="edgeStyle=orthogonalEdgeStyle;rounded=0;orthogonalLoop=1;jettySize=auto;html=1;exitX=1;exitY=0.5;exitDx=0;exitDy=0;exitPerimeter=0;entryX=0;entryY=0.5;entryDx=0;entryDy=0;entryPerimeter=0;" edge="1" parent="1" source="moRijN_G1tvkUnhc_iRw-15" target="moRijN_G1tvkUnhc_iRw-22">
          <mxGeometry relative="1" as="geometry" />
        </mxCell>
        <mxCell id="moRijN_G1tvkUnhc_iRw-27" style="edgeStyle=orthogonalEdgeStyle;rounded=0;orthogonalLoop=1;jettySize=auto;html=1;exitX=1;exitY=0.5;exitDx=0;exitDy=0;exitPerimeter=0;entryX=0;entryY=0.5;entryDx=0;entryDy=0;entryPerimeter=0;" edge="1" parent="1" source="moRijN_G1tvkUnhc_iRw-18" target="moRijN_G1tvkUnhc_iRw-23">
          <mxGeometry relative="1" as="geometry" />
        </mxCell>
        <mxCell id="moRijN_G1tvkUnhc_iRw-29" style="edgeStyle=orthogonalEdgeStyle;rounded=0;orthogonalLoop=1;jettySize=auto;html=1;exitX=1;exitY=0.5;exitDx=0;exitDy=0;exitPerimeter=0;entryX=0;entryY=0.5;entryDx=0;entryDy=0;entryPerimeter=0;" edge="1" parent="1" source="moRijN_G1tvkUnhc_iRw-19" target="moRijN_G1tvkUnhc_iRw-24">
          <mxGeometry relative="1" as="geometry" />
        </mxCell>
        <mxCell id="moRijN_G1tvkUnhc_iRw-30" style="edgeStyle=orthogonalEdgeStyle;rounded=0;orthogonalLoop=1;jettySize=auto;html=1;exitX=0.5;exitY=1;exitDx=0;exitDy=0;exitPerimeter=0;entryX=0.5;entryY=0;entryDx=0;entryDy=0;entryPerimeter=0;" edge="1" parent="1" source="moRijN_G1tvkUnhc_iRw-11" target="moRijN_G1tvkUnhc_iRw-15">
          <mxGeometry relative="1" as="geometry" />
        </mxCell>
        <mxCell id="moRijN_G1tvkUnhc_iRw-31" style="edgeStyle=orthogonalEdgeStyle;rounded=0;orthogonalLoop=1;jettySize=auto;html=1;exitX=0.5;exitY=1;exitDx=0;exitDy=0;exitPerimeter=0;entryX=0.5;entryY=0;entryDx=0;entryDy=0;entryPerimeter=0;" edge="1" parent="1" source="moRijN_G1tvkUnhc_iRw-15" target="moRijN_G1tvkUnhc_iRw-18">
          <mxGeometry relative="1" as="geometry" />
        </mxCell>
        <mxCell id="moRijN_G1tvkUnhc_iRw-32" style="edgeStyle=orthogonalEdgeStyle;rounded=0;orthogonalLoop=1;jettySize=auto;html=1;exitX=0.5;exitY=1;exitDx=0;exitDy=0;exitPerimeter=0;entryX=0.5;entryY=0;entryDx=0;entryDy=0;entryPerimeter=0;" edge="1" parent="1" source="moRijN_G1tvkUnhc_iRw-18" target="moRijN_G1tvkUnhc_iRw-19">
          <mxGeometry relative="1" as="geometry" />
        </mxCell>
        <mxCell id="moRijN_G1tvkUnhc_iRw-36" style="edgeStyle=orthogonalEdgeStyle;rounded=0;orthogonalLoop=1;jettySize=auto;html=1;exitX=0.5;exitY=1;exitDx=0;exitDy=0;entryX=1;entryY=0.5;entryDx=0;entryDy=0;" edge="1" parent="1" source="moRijN_G1tvkUnhc_iRw-34" target="moRijN_G1tvkUnhc_iRw-4">
          <mxGeometry relative="1" as="geometry" />
        </mxCell>
        <mxCell id="moRijN_G1tvkUnhc_iRw-34" value="SE A VARIAVEL FOR VERDADEIRA" style="ellipse;whiteSpace=wrap;html=1;aspect=fixed;" vertex="1" parent="1">
          <mxGeometry x="550" y="570" width="50" height="50" as="geometry" />
        </mxCell>
      </root>
    </mxGraphModel>
  </diagram>
</mxfile>
